# xmcd
#
# Track frame offsets: 
#        150
#        16827
#        39487
#        63372
#        82325
#        99357
#        117372
#        138230
#        157195
#
# Disc length: 2337 seconds
#
# Revision: 2
# Processed by: cddbd v1.5.2PL0 Copyright (c) Steve Scherf et al.
# Submitted via: ExactAudioCopy v0.95b4
#
DISCID=72091f09
DTITLE=Nick Cave and The Bad Seeds - The Best Of Nick Cave and The Bad See
DTITLE=ds [CD2) - Live at the Royal Albert Hall
DYEAR=1998
DGENRE=Alt. Rock
TTITLE0=Lime Tree Arbour
TTITLE1=Stranger Than Kindness
TTITLE2=Red Right Hand
TTITLE3=I Let Love In
TTITLE4=Brompton Oratory
TTITLE5=Henry Lee
TTITLE6=The Weeping Song
TTITLE7=The Ship Song
TTITLE8=Where The Wild Roses Grow
EXTD=
EXTT0=
EXTT1=
EXTT2=
EXTT3=
EXTT4=
EXTT5=
EXTT6=
EXTT7=
EXTT8=
PLAYORDER=
